<svg width="383" height="487" viewBox="0 0 383 487" version="1.1" xmlns="http://www.w3.org/2000/svg" xmlns:xlink="http://www.w3.org/1999/xlink">
<title>Logo</title>
<desc>Created using Figma</desc>
<g id="Canvas" transform="translate(-2754 -5349)">
<g id="Logo">
<g id="Primary">
<g id="Arc">
<g id="Outer">
<use xlink:href="#path0_fill" transform="translate(2754.06 5349.5)" fill="#FFFFFF" fill-opacity="0.5"/>
</g>
<g id="Middle">
<use xlink:href="#path1_fill" transform="translate(2776.66 5374.28)" fill="#FFFFFF" fill-opacity="0.5"/>
</g>
<g id="Inner">
<use xlink:href="#path2_fill" transform="translate(2800.07 5397.69)" fill="#FFFFFF" fill-opacity="0.5"/>
</g>
</g>
<g id="HACK NYU">
<use xlink:href="#path3_fill" transform="translate(2882 5790.62)" fill="#FFFFFF"/>
</g>
</g>
</g>
</g>
<defs>
<path id="path0_fill" fill-rule="evenodd" d="M 13.884 182.68C 13.884 84.812 93.2512 5.44482 191.119 5.44482L 191.119 0C 90.2441 0 8.43896 81.8052 8.43896 182.68L 8.43896 461.527C 3.59058 462.743 0 467.13 0 472.355C 0 478.52 4.99756 483.518 11.1624 483.518C 17.3269 483.518 22.3245 478.52 22.3245 472.355C 22.3245 467.129 18.7332 462.742 13.884 461.527L 13.884 182.68ZM 373.802 182.68C 373.802 81.8052 291.997 0 191.122 0L 191.122 5.44482C 288.99 5.44482 368.357 84.812 368.357 182.68L 368.362 182.68L 368.362 393.461C 363.508 394.673 359.911 399.062 359.911 404.292C 359.911 410.457 364.909 415.455 371.074 415.455C 377.238 415.455 382.236 410.457 382.236 404.292C 382.236 399.07 378.65 394.686 373.807 393.467L 373.807 182.68L 373.802 182.68ZM 11.1624 466.638C 8.00464 466.638 5.44507 469.198 5.44507 472.355C 5.44507 475.513 8.00464 478.072 11.1624 478.072C 14.3198 478.072 16.8796 475.513 16.8796 472.355C 16.8796 469.198 14.3198 466.638 11.1624 466.638ZM 365.356 404.292C 365.356 401.135 367.916 398.575 371.074 398.575C 374.231 398.575 376.791 401.135 376.791 404.292C 376.791 407.45 374.231 410.009 371.074 410.009C 367.916 410.009 365.356 407.45 365.356 404.292Z"/>
<path id="path1_fill" fill-rule="evenodd" d="M 168.515 5.44482C 82.8647 5.44482 13.8772 73.6841 13.8772 157.905L 13.8772 436.751C 18.73 437.963 22.3245 442.353 22.3245 447.581C 22.3245 453.746 17.3271 458.743 11.1624 458.743C 4.99756 458.743 0 453.746 0 447.581C 0 442.358 3.58716 437.973 8.43213 436.755L 8.43213 157.905C 8.43213 70.6089 79.9258 0 168.515 0L 168.515 5.44482ZM 5.44507 447.581C 5.44507 444.423 8.00464 441.863 11.1624 441.863C 14.3198 441.863 16.8796 444.423 16.8796 447.581C 16.8796 450.738 14.3198 453.298 11.1624 453.298C 8.00464 453.298 5.44507 450.738 5.44507 447.581ZM 320.714 293.82C 315.864 295.034 312.272 299.422 312.272 304.648C 312.272 310.813 317.27 315.811 323.434 315.811C 329.599 315.811 334.596 310.813 334.596 304.648C 334.596 299.424 331.007 295.038 326.159 293.821L 326.159 157.906L 326.155 157.905C 326.155 70.646 255.515 0 168.522 0L 168.522 5.44482C 252.502 5.44482 320.71 73.647 320.71 157.905L 320.714 157.906L 320.714 293.82ZM 317.717 304.648C 317.717 301.491 320.277 298.931 323.434 298.931C 326.592 298.931 329.152 301.491 329.152 304.648C 329.152 307.806 326.592 310.366 323.434 310.366C 320.277 310.366 317.717 307.806 317.717 304.648Z"/>
<path id="path2_fill" fill-rule="evenodd" d="M 145.115 5.44482C 72.5269 5.44482 13.8909 63.3442 13.8909 134.492L 13.8909 413.34C 18.7366 414.557 22.3245 418.943 22.3245 424.166C 22.3245 430.331 17.3271 435.329 11.1624 435.329C 4.99756 435.329 0 430.331 0 424.166C 0 418.938 3.59399 414.55 8.4458 413.337L 8.4458 134.492C 8.4458 60.2573 69.5999 0 145.115 0L 145.115 5.44482ZM 5.44507 424.166C 5.44507 421.009 8.00464 418.449 11.1624 418.449C 14.3198 418.449 16.8796 421.009 16.8796 424.166C 16.8796 427.324 14.3198 429.883 11.1624 429.883C 8.00464 429.883 5.44507 427.324 5.44507 424.166ZM 265.998 323.432C 265.998 318.207 269.589 313.82 274.437 312.604L 274.437 134.491C 274.436 63.3081 216.58 5.44482 145.117 5.44482L 145.117 0C 219.58 0 279.881 60.2935 279.882 134.491L 279.882 312.604C 284.731 313.819 288.323 318.207 288.323 323.432C 288.323 329.597 283.325 334.595 277.16 334.595C 270.996 334.595 265.998 329.597 265.998 323.432ZM 277.16 317.715C 274.003 317.715 271.443 320.275 271.443 323.432C 271.443 326.59 274.003 329.149 277.16 329.149C 280.318 329.149 282.878 326.59 282.878 323.432C 282.878 320.275 280.318 317.715 277.16 317.715Z"/>
<path id="path3_fill" d="M 9.73047 11.9399L 9.73047 25.4341L 26.3687 25.4341L 26.3687 11.9399L 32.5649 11.9399L 32.5649 44L 26.3687 44L 26.3687 30.46L 9.73047 30.46L 9.73047 44L 3.53418 44L 3.53418 11.9399L 9.73047 11.9399ZM 56.3743 11.9399L 70.534 44L 63.9934 44L 60.6658 36.1973L 46.4143 36.1973L 43.3162 44L 36.8216 44L 50.0403 11.9399L 56.3743 11.9399ZM 48.2962 31.4927L 58.6463 31.4927L 53.2303 18.8018L 48.2962 31.4927ZM 90.878 11.5269C 92.6986 11.5269 94.481 11.7334 96.2252 12.1465C 97.9693 12.5596 99.8511 13.2633 101.871 14.2578L 101.871 20.0869C 99.897 18.9548 98.0687 18.1362 96.3858 17.6313C 94.7182 17.1265 92.974 16.874 91.1534 16.874C 88.8738 16.874 86.816 17.3483 84.98 18.2969C 83.1441 19.2301 81.7136 20.5535 80.6885 22.2671C 79.6788 23.9806 79.1739 25.8854 79.1739 27.9814C 79.1739 30.1234 79.6788 32.0435 80.6885 33.7417C 81.6983 35.4399 83.1212 36.7557 84.9571 37.689C 86.793 38.6069 88.8585 39.0659 91.1534 39.0659C 92.9128 39.0659 94.5881 38.8135 96.1793 38.3086C 97.7857 37.8037 99.8052 36.8934 102.238 35.5776L 102.238 41.4067C 100.157 42.493 98.2447 43.2656 96.5005 43.7246C 94.7564 44.1836 92.7216 44.4131 90.3961 44.4131C 87.0149 44.4131 83.9932 43.7399 81.3311 42.3936C 78.669 41.0472 76.573 39.1118 75.043 36.5874C 73.5284 34.0477 72.7711 31.2708 72.7711 28.2568C 72.7711 25.0286 73.5513 22.1294 75.1119 19.5591C 76.6877 16.9888 78.845 15.0075 81.5836 13.6152C 84.3375 12.223 87.4356 11.5269 90.878 11.5269ZM 114.137 11.9399L 114.137 26.7422L 114.274 26.7422L 126.024 11.9399L 133.07 11.9399L 121.136 27.0405L 136.604 44L 128.663 44L 114.137 28.2568L 114.137 44L 107.94 44L 107.94 11.9399L 114.137 11.9399ZM 159.392 11.9399L 178.439 34.3154L 178.439 11.9399L 184.498 11.9399L 184.498 44L 179.174 44L 160.011 21.2573L 160.011 44L 153.953 44L 153.953 11.9399L 159.392 11.9399ZM 196.19 11.9399L 203.947 22.6572L 211.796 11.9399L 219.162 11.9399L 207.045 28.1191L 207.045 44L 200.849 44L 200.849 28.0732L 188.663 11.9399L 196.19 11.9399ZM 229.11 11.9399L 229.11 30.5977C 229.11 32.5101 229.393 34.0324 229.959 35.1646C 230.541 36.2967 231.482 37.23 232.782 37.9644C 234.083 38.6987 235.597 39.0659 237.326 39.0659C 239.223 39.0659 240.83 38.7217 242.145 38.0332C 243.477 37.3294 244.448 36.3809 245.06 35.1875C 245.672 33.9788 245.978 32.3112 245.978 30.1846L 245.978 11.9399L 252.174 11.9399L 252.174 30.9878C 252.174 35.3022 250.881 38.6222 248.296 40.9478C 245.71 43.258 242.054 44.4131 237.326 44.4131C 234.358 44.4131 231.78 43.8853 229.592 42.8296C 227.42 41.7739 225.76 40.2516 224.612 38.2627C 223.465 36.2585 222.891 33.91 222.891 31.2173L 222.891 11.9399L 229.11 11.9399Z"/>
</defs>
</svg>
