<svg width="383" height="487" viewBox="0 0 383 487" version="1.1" xmlns="http://www.w3.org/2000/svg" xmlns:xlink="http://www.w3.org/1999/xlink">
<title>logo-stroke</title>
<desc>Created using Figma</desc>
<g id="Canvas" transform="translate(-4738 -5363)">
<g id="logo-stroke">
<g id="primary">
<g id="arc">
<g id="outer">
<mask id="mask0_outline_ins">
<use xlink:href="#path0_fill" fill="white" transform="translate(4738.61 5363.92)"/>
<use xlink:href="#path1_fill" fill="white" transform="translate(4738.61 5363.92)"/>
</mask>
<g mask="url(#mask0_outline_ins)">
<use xlink:href="#path2_stroke_2x" transform="translate(4738.61 5363.92)" fill="#FFFFFF" fill-opacity="0.5"/>
</g>
</g>
<g id="middle">
<mask id="mask1_outline_ins">
<use xlink:href="#path3_fill" fill="white" transform="translate(4761.21 5388.7)"/>
<use xlink:href="#path4_fill" fill="white" transform="translate(4761.21 5388.7)"/>
</mask>
<g mask="url(#mask1_outline_ins)">
<use xlink:href="#path5_stroke_2x" transform="translate(4761.21 5388.7)" fill="#FFFFFF" fill-opacity="0.5"/>
</g>
</g>
<g id="inner">
<mask id="mask2_outline_ins">
<use xlink:href="#path6_fill" fill="white" transform="translate(4784.62 5412.11)"/>
<use xlink:href="#path7_fill" fill="white" transform="translate(4784.62 5412.11)"/>
</mask>
<g mask="url(#mask2_outline_ins)">
<use xlink:href="#path8_stroke_2x" transform="translate(4784.62 5412.11)" fill="#FFFFFF" fill-opacity="0.5"/>
</g>
</g>
</g>
<g id="HACK NYU">
<use xlink:href="#path9_fill" transform="translate(4866.55 5805.04)" fill="#FFFFFF"/>
</g>
</g>
</g>
</g>
<defs>
<path id="path0_fill" fill-rule="evenodd" d="M 13.8838 182.68C 13.8838 84.812 93.2515 5.44482 191.119 5.44482L 191.119 0C 90.2441 0 8.43896 81.8052 8.43896 182.68L 8.43896 461.527C 3.59082 462.743 0 467.13 0 472.355C 0 478.52 4.99756 483.518 11.1621 483.518C 17.3271 483.518 22.3247 478.52 22.3247 472.355C 22.3247 467.129 18.7334 462.742 13.8838 461.527L 13.8838 182.68ZM 11.1621 466.638C 8.00488 466.638 5.44482 469.198 5.44482 472.355C 5.44482 475.513 8.00488 478.072 11.1621 478.072C 14.3198 478.072 16.8794 475.513 16.8794 472.355C 16.8794 469.198 14.3198 466.638 11.1621 466.638Z"/>
<path id="path1_fill" fill-rule="evenodd" d="M 373.802 182.68C 373.802 81.8052 291.997 0 191.122 0L 191.122 5.44482C 288.99 5.44482 368.357 84.812 368.357 182.68L 368.362 182.68L 368.362 393.461C 363.508 394.673 359.911 399.062 359.911 404.292C 359.911 410.457 364.909 415.455 371.073 415.455C 377.238 415.455 382.236 410.457 382.236 404.292C 382.236 399.071 378.65 394.687 373.807 393.467L 373.807 182.68L 373.802 182.68ZM 365.356 404.292C 365.356 401.135 367.916 398.575 371.073 398.575C 374.231 398.575 376.791 401.135 376.791 404.292C 376.791 407.45 374.231 410.009 371.073 410.009C 367.916 410.009 365.356 407.45 365.356 404.292Z"/>
<path id="path2_stroke_2x" d="M 191.119 5.44482L 191.119 8.44482L 194.119 8.44482L 194.119 5.44482L 191.119 5.44482ZM 191.119 0L 194.119 0L 194.119 -3L 191.119 -3L 191.119 0ZM 8.43896 461.527L 9.16843 464.437L 11.439 463.868L 11.439 461.527L 8.43896 461.527ZM 13.8838 461.527L 10.8838 461.527L 10.8838 463.868L 13.1548 464.437L 13.8838 461.527ZM 191.122 0L 191.122 -3L 188.122 -3L 188.122 0L 191.122 0ZM 373.802 182.68L 370.802 182.68L 370.802 185.68L 373.802 185.68L 373.802 182.68ZM 191.122 5.44482L 188.122 5.44482L 188.122 8.44482L 191.122 8.44482L 191.122 5.44482ZM 368.357 182.68L 365.357 182.68L 365.357 185.68L 368.357 185.68L 368.357 182.68ZM 368.362 182.68L 371.362 182.68L 371.362 179.68L 368.362 179.68L 368.362 182.68ZM 368.362 393.461L 369.089 396.372L 371.362 395.805L 371.362 393.461L 368.362 393.461ZM 373.807 393.467L 370.807 393.467L 370.807 395.806L 373.075 396.377L 373.807 393.467ZM 373.807 182.68L 376.807 182.68L 376.807 179.68L 373.807 179.68L 373.807 182.68ZM 191.119 2.44482C 91.5946 2.44482 10.8838 83.1552 10.8838 182.68L 16.8838 182.68C 16.8838 86.4689 94.9083 8.44482 191.119 8.44482L 191.119 2.44482ZM 188.119 0L 188.119 5.44482L 194.119 5.44482L 194.119 0L 188.119 0ZM 11.439 182.68C 11.439 83.462 91.901 3 191.119 3L 191.119 -3C 88.5873 -3 5.43896 80.1483 5.43896 182.68L 11.439 182.68ZM 11.439 461.527L 11.439 182.68L 5.43896 182.68L 5.43896 461.527L 11.439 461.527ZM 3 472.355C 3 468.538 5.6231 465.326 9.16843 464.437L 7.7095 458.617C 1.55854 460.159 -3 465.721 -3 472.355L 3 472.355ZM 11.1621 480.518C 6.6545 480.518 3 476.863 3 472.355L -3 472.355C -3 480.177 3.34062 486.518 11.1621 486.518L 11.1621 480.518ZM 19.3247 472.355C 19.3247 476.863 15.6703 480.518 11.1621 480.518L 11.1621 486.518C 18.984 486.518 25.3247 480.177 25.3247 472.355L 19.3247 472.355ZM 13.1548 464.437C 16.7013 465.325 19.3247 468.538 19.3247 472.355L 25.3247 472.355C 25.3247 465.721 20.7655 460.158 14.6128 458.617L 13.1548 464.437ZM 10.8838 182.68L 10.8838 461.527L 16.8838 461.527L 16.8838 182.68L 10.8838 182.68ZM 191.122 3C 290.34 3 370.802 83.462 370.802 182.68L 376.802 182.68C 376.802 80.1483 293.654 -3 191.122 -3L 191.122 3ZM 194.122 5.44482L 194.122 0L 188.122 0L 188.122 5.44482L 194.122 5.44482ZM 371.357 182.68C 371.357 83.1552 290.647 2.44482 191.122 2.44482L 191.122 8.44482C 287.333 8.44482 365.357 86.4689 365.357 182.68L 371.357 182.68ZM 368.362 179.68L 368.357 179.68L 368.357 185.68L 368.362 185.68L 368.362 179.68ZM 371.362 393.461L 371.362 182.68L 365.362 182.68L 365.362 393.461L 371.362 393.461ZM 362.911 404.292C 362.911 400.472 365.538 397.258 369.089 396.372L 367.636 390.551C 361.477 392.088 356.911 397.653 356.911 404.292L 362.911 404.292ZM 371.073 412.455C 366.566 412.455 362.911 408.8 362.911 404.292L 356.911 404.292C 356.911 412.114 363.252 418.455 371.073 418.455L 371.073 412.455ZM 379.236 404.292C 379.236 408.8 375.581 412.455 371.073 412.455L 371.073 418.455C 378.895 418.455 385.236 412.114 385.236 404.292L 379.236 404.292ZM 373.075 396.377C 376.617 397.268 379.236 400.478 379.236 404.292L 385.236 404.292C 385.236 397.663 380.684 392.105 374.539 390.558L 373.075 396.377ZM 370.807 182.68L 370.807 393.467L 376.807 393.467L 376.807 182.68L 370.807 182.68ZM 373.802 185.68L 373.807 185.68L 373.807 179.68L 373.802 179.68L 373.802 185.68ZM 8.44482 472.355C 8.44482 470.855 9.66174 469.638 11.1621 469.638L 11.1621 463.638C 6.34803 463.638 2.44482 467.541 2.44482 472.355L 8.44482 472.355ZM 11.1621 475.072C 9.66157 475.072 8.44482 473.856 8.44482 472.355L 2.44482 472.355C 2.44482 477.17 6.3482 481.072 11.1621 481.072L 11.1621 475.072ZM 13.8794 472.355C 13.8794 473.856 12.663 475.072 11.1621 475.072L 11.1621 481.072C 15.9767 481.072 19.8794 477.17 19.8794 472.355L 13.8794 472.355ZM 11.1621 469.638C 12.6628 469.638 13.8794 470.854 13.8794 472.355L 19.8794 472.355C 19.8794 467.541 15.9768 463.638 11.1621 463.638L 11.1621 469.638ZM 371.073 395.575C 366.259 395.575 362.356 399.478 362.356 404.292L 368.356 404.292C 368.356 402.792 369.573 401.575 371.073 401.575L 371.073 395.575ZM 379.791 404.292C 379.791 399.478 375.888 395.575 371.073 395.575L 371.073 401.575C 372.574 401.575 373.791 402.791 373.791 404.292L 379.791 404.292ZM 371.073 413.009C 375.888 413.009 379.791 409.107 379.791 404.292L 373.791 404.292C 373.791 405.793 372.574 407.009 371.073 407.009L 371.073 413.009ZM 362.356 404.292C 362.356 409.107 366.259 413.009 371.073 413.009L 371.073 407.009C 369.573 407.009 368.356 405.793 368.356 404.292L 362.356 404.292Z"/>
<path id="path3_fill" fill-rule="evenodd" d="M 168.516 5.44482C 82.8647 5.44482 13.877 73.6841 13.877 157.905L 13.877 436.751C 18.73 437.963 22.3247 442.352 22.3247 447.581C 22.3247 453.746 17.3271 458.743 11.1621 458.743C 4.99756 458.743 0 453.746 0 447.581C 0 442.358 3.5874 437.973 8.43213 436.755L 8.43213 157.905C 8.43213 70.6089 79.9258 0 168.516 0L 168.516 5.44482ZM 5.44482 447.581C 5.44482 444.423 8.00488 441.863 11.1621 441.863C 14.3198 441.863 16.8794 444.423 16.8794 447.581C 16.8794 450.738 14.3198 453.298 11.1621 453.298C 8.00488 453.298 5.44482 450.738 5.44482 447.581Z"/>
<path id="path4_fill" fill-rule="evenodd" d="M 320.714 293.82C 315.864 295.034 312.272 299.422 312.272 304.648C 312.272 310.813 317.27 315.811 323.434 315.811C 329.599 315.811 334.597 310.813 334.597 304.648C 334.597 299.424 331.007 295.038 326.159 293.821L 326.159 157.906L 326.155 157.905C 326.155 70.646 255.515 0 168.522 0L 168.522 5.44482C 252.502 5.44482 320.71 73.647 320.71 157.905L 320.714 157.906L 320.714 293.82ZM 317.717 304.648C 317.717 301.491 320.277 298.931 323.434 298.931C 326.592 298.931 329.151 301.491 329.151 304.648C 329.151 307.806 326.592 310.366 323.434 310.366C 320.277 310.366 317.717 307.806 317.717 304.648Z"/>
<path id="path5_stroke_2x" d="M 168.516 5.44482L 168.516 8.44482L 171.516 8.44482L 171.516 5.44482L 168.516 5.44482ZM 13.877 436.751L 10.877 436.751L 10.877 439.094L 13.1498 439.662L 13.877 436.751ZM 8.43213 436.755L 9.16346 439.664L 11.4321 439.094L 11.4321 436.755L 8.43213 436.755ZM 168.516 0L 171.516 0L 171.516 -3L 168.516 -3L 168.516 0ZM 320.714 293.82L 321.443 296.73L 323.714 296.161L 323.714 293.82L 320.714 293.82ZM 326.159 293.821L 323.159 293.821L 323.159 296.162L 325.429 296.731L 326.159 293.821ZM 326.159 157.906L 329.159 157.906L 329.159 155.221L 326.49 154.924L 326.159 157.906ZM 326.155 157.905L 323.155 157.905L 323.155 160.59L 325.823 160.887L 326.155 157.905ZM 168.522 0L 168.522 -3L 165.522 -3L 165.522 0L 168.522 0ZM 168.522 5.44482L 165.522 5.44482L 165.522 8.44482L 168.522 8.44482L 168.522 5.44482ZM 320.71 157.905L 317.71 157.905L 317.71 160.59L 320.379 160.887L 320.71 157.905ZM 320.714 157.906L 323.714 157.906L 323.714 155.221L 321.046 154.924L 320.714 157.906ZM 16.877 157.905C 16.877 75.3781 84.4842 8.44482 168.516 8.44482L 168.516 2.44482C 81.2453 2.44482 10.877 71.9901 10.877 157.905L 16.877 157.905ZM 16.877 436.751L 16.877 157.905L 10.877 157.905L 10.877 436.751L 16.877 436.751ZM 25.3247 447.581C 25.3247 440.943 20.761 435.379 14.6041 433.84L 13.1498 439.662C 16.6989 440.548 19.3247 443.761 19.3247 447.581L 25.3247 447.581ZM 11.1621 461.743C 18.984 461.743 25.3247 455.402 25.3247 447.581L 19.3247 447.581C 19.3247 452.089 15.6703 455.743 11.1621 455.743L 11.1621 461.743ZM -3 447.581C -3 455.402 3.34062 461.743 11.1621 461.743L 11.1621 455.743C 6.6545 455.743 3 452.089 3 447.581L -3 447.581ZM 7.7008 433.845C 1.55431 435.39 -3 440.95 -3 447.581L 3 447.581C 3 443.766 5.6205 440.555 9.16346 439.664L 7.7008 433.845ZM 5.43213 157.905L 5.43213 436.755L 11.4321 436.755L 11.4321 157.905L 5.43213 157.905ZM 168.516 -3C 78.3067 -3 5.43213 68.9145 5.43213 157.905L 11.4321 157.905C 11.4321 72.3033 81.5449 3 168.516 3L 168.516 -3ZM 171.516 5.44482L 171.516 0L 165.516 0L 165.516 5.44482L 171.516 5.44482ZM 11.1621 438.863C 6.34803 438.863 2.44482 442.766 2.44482 447.581L 8.44482 447.581C 8.44482 446.08 9.66174 444.863 11.1621 444.863L 11.1621 438.863ZM 19.8794 447.581C 19.8794 442.767 15.9768 438.863 11.1621 438.863L 11.1621 444.863C 12.6628 444.863 13.8794 446.08 13.8794 447.581L 19.8794 447.581ZM 11.1621 456.298C 15.9767 456.298 19.8794 452.395 19.8794 447.581L 13.8794 447.581C 13.8794 449.081 12.663 450.298 11.1621 450.298L 11.1621 456.298ZM 2.44482 447.581C 2.44482 452.395 6.3482 456.298 11.1621 456.298L 11.1621 450.298C 9.66157 450.298 8.44482 449.081 8.44482 447.581L 2.44482 447.581ZM 315.272 304.648C 315.272 300.831 317.896 297.618 321.443 296.73L 319.986 290.91C 313.832 292.45 309.272 298.013 309.272 304.648L 315.272 304.648ZM 323.434 312.811C 318.926 312.811 315.272 309.157 315.272 304.648L 309.272 304.648C 309.272 312.47 315.613 318.811 323.434 318.811L 323.434 312.811ZM 331.597 304.648C 331.597 309.157 327.942 312.811 323.434 312.811L 323.434 318.811C 331.256 318.811 337.597 312.47 337.597 304.648L 331.597 304.648ZM 325.429 296.731C 328.975 297.621 331.597 300.832 331.597 304.648L 337.597 304.648C 337.597 298.015 333.039 292.455 326.889 290.911L 325.429 296.731ZM 323.159 157.906L 323.159 293.821L 329.159 293.821L 329.159 157.906L 323.159 157.906ZM 325.823 160.887L 325.828 160.887L 326.49 154.924L 326.486 154.924L 325.823 160.887ZM 168.522 3C 253.855 3 323.155 72.2994 323.155 157.905L 329.155 157.905C 329.155 68.9926 257.175 -3 168.522 -3L 168.522 3ZM 171.522 5.44482L 171.522 0L 165.522 0L 165.522 5.44482L 171.522 5.44482ZM 323.71 157.905C 323.71 71.9935 254.162 2.44482 168.522 2.44482L 168.522 8.44482C 250.842 8.44482 317.71 75.3004 317.71 157.905L 323.71 157.905ZM 321.046 154.924L 321.041 154.924L 320.379 160.887L 320.383 160.887L 321.046 154.924ZM 323.714 293.82L 323.714 157.906L 317.714 157.906L 317.714 293.82L 323.714 293.82ZM 323.434 295.931C 318.62 295.931 314.717 299.834 314.717 304.648L 320.717 304.648C 320.717 303.148 321.934 301.931 323.434 301.931L 323.434 295.931ZM 332.151 304.648C 332.151 299.835 328.249 295.931 323.434 295.931L 323.434 301.931C 324.935 301.931 326.151 303.148 326.151 304.648L 332.151 304.648ZM 323.434 313.366C 328.249 313.366 332.151 309.463 332.151 304.648L 326.151 304.648C 326.151 306.149 324.935 307.366 323.434 307.366L 323.434 313.366ZM 314.717 304.648C 314.717 309.463 318.62 313.366 323.434 313.366L 323.434 307.366C 321.934 307.366 320.717 306.149 320.717 304.648L 314.717 304.648Z"/>
<path id="path6_fill" fill-rule="evenodd" d="M 145.116 5.44482C 72.5269 5.44482 13.8906 63.3442 13.8906 134.492L 13.8906 413.34C 18.7368 414.557 22.3247 418.943 22.3247 424.166C 22.3247 430.331 17.3271 435.329 11.1621 435.329C 4.99756 435.329 0 430.331 0 424.166C 0 418.938 3.59375 414.55 8.4458 413.337L 8.4458 134.492C 8.4458 60.2573 69.6001 0 145.116 0L 145.116 5.44482ZM 5.44482 424.166C 5.44482 421.009 8.00488 418.449 11.1621 418.449C 14.3198 418.449 16.8794 421.009 16.8794 424.166C 16.8794 427.324 14.3198 429.883 11.1621 429.883C 8.00488 429.883 5.44482 427.324 5.44482 424.166Z"/>
<path id="path7_fill" fill-rule="evenodd" d="M 265.998 323.432C 265.998 318.207 269.589 313.82 274.437 312.604L 274.437 134.491C 274.436 63.3081 216.581 5.44482 145.117 5.44482L 145.117 0C 219.58 0 279.881 60.2935 279.882 134.491L 279.882 312.604C 284.731 313.819 288.323 318.207 288.323 323.432C 288.323 329.597 283.325 334.595 277.16 334.595C 270.996 334.595 265.998 329.597 265.998 323.432ZM 277.16 317.715C 274.003 317.715 271.443 320.275 271.443 323.432C 271.443 326.59 274.003 329.149 277.16 329.149C 280.318 329.149 282.877 326.59 282.877 323.432C 282.877 320.275 280.318 317.715 277.16 317.715Z"/>
<path id="path8_stroke_2x" d="M 145.116 5.44482L 145.116 8.44482L 148.116 8.44482L 148.116 5.44482L 145.116 5.44482ZM 13.8906 413.34L 10.8906 413.34L 10.8906 415.679L 13.1598 416.249L 13.8906 413.34ZM 8.4458 413.337L 9.17361 416.247L 11.4458 415.679L 11.4458 413.337L 8.4458 413.337ZM 145.116 0L 148.116 0L 148.116 -3L 145.116 -3L 145.116 0ZM 274.437 312.604L 275.166 315.514L 277.437 314.945L 277.437 312.604L 274.437 312.604ZM 274.437 134.491L 277.437 134.491L 277.437 134.491L 274.437 134.491ZM 145.117 5.44482L 142.117 5.44482L 142.117 8.44482L 145.117 8.44482L 145.117 5.44482ZM 145.117 0L 145.117 -3L 142.117 -3L 142.117 0L 145.117 0ZM 279.882 134.491L 282.882 134.491L 282.882 134.491L 279.882 134.491ZM 279.882 312.604L 276.882 312.604L 276.882 314.945L 279.153 315.514L 279.882 312.604ZM 16.8906 134.492C 16.8906 65.0447 74.1398 8.44482 145.116 8.44482L 145.116 2.44482C 70.9139 2.44482 10.8906 61.6438 10.8906 134.492L 16.8906 134.492ZM 16.8906 413.34L 16.8906 134.492L 10.8906 134.492L 10.8906 413.34L 16.8906 413.34ZM 25.3247 424.166C 25.3247 417.535 20.7697 411.975 14.6215 410.43L 13.1598 416.249C 16.7039 417.14 19.3247 420.351 19.3247 424.166L 25.3247 424.166ZM 11.1621 438.329C 18.984 438.329 25.3247 431.988 25.3247 424.166L 19.3247 424.166C 19.3247 428.674 15.6703 432.329 11.1621 432.329L 11.1621 438.329ZM -3 424.166C -3 431.988 3.34062 438.329 11.1621 438.329L 11.1621 432.329C 6.6545 432.329 3 428.674 3 424.166L -3 424.166ZM 7.71799 410.427C 1.56249 411.966 -3 417.529 -3 424.166L 3 424.166C 3 420.348 5.62501 417.135 9.17361 416.247L 7.71799 410.427ZM 5.4458 134.492L 5.4458 413.337L 11.4458 413.337L 11.4458 134.492L 5.4458 134.492ZM 145.116 -3C 67.9877 -3 5.4458 58.5563 5.4458 134.492L 11.4458 134.492C 11.4458 61.9583 71.2125 3 145.116 3L 145.116 -3ZM 148.116 5.44482L 148.116 0L 142.116 0L 142.116 5.44482L 148.116 5.44482ZM 11.1621 415.449C 6.34803 415.449 2.44482 419.352 2.44482 424.166L 8.44482 424.166C 8.44482 422.666 9.66174 421.449 11.1621 421.449L 11.1621 415.449ZM 19.8794 424.166C 19.8794 419.352 15.9768 415.449 11.1621 415.449L 11.1621 421.449C 12.6628 421.449 13.8794 422.665 13.8794 424.166L 19.8794 424.166ZM 11.1621 432.883C 15.9767 432.883 19.8794 428.981 19.8794 424.166L 13.8794 424.166C 13.8794 425.667 12.663 426.883 11.1621 426.883L 11.1621 432.883ZM 2.44482 424.166C 2.44482 428.981 6.3482 432.883 11.1621 432.883L 11.1621 426.883C 9.66157 426.883 8.44482 425.667 8.44482 424.166L 2.44482 424.166ZM 273.708 309.695C 267.557 311.236 262.998 316.799 262.998 323.432L 268.998 323.432C 268.998 319.615 271.621 316.403 275.166 315.514L 273.708 309.695ZM 271.437 134.491L 271.437 312.604L 277.437 312.604L 277.437 134.491L 271.437 134.491ZM 277.437 134.491C 277.436 61.6472 218.233 2.44482 145.117 2.44482L 145.117 8.44482C 214.928 8.44482 271.436 64.969 271.437 134.491L 277.437 134.491ZM 148.117 5.44482L 148.117 0L 142.117 0L 142.117 5.44482L 148.117 5.44482ZM 145.117 3C 217.927 3 276.881 61.9544 276.882 134.491L 282.882 134.491C 282.881 58.6325 221.233 -3 145.117 -3L 145.117 3ZM 282.882 312.604L 282.882 134.491L 276.882 134.491L 276.882 312.604L 282.882 312.604ZM 291.323 323.432C 291.323 316.798 286.764 311.235 280.611 309.694L 279.153 315.514C 282.699 316.402 285.323 319.615 285.323 323.432L 291.323 323.432ZM 277.16 337.595C 284.982 337.595 291.323 331.254 291.323 323.432L 285.323 323.432C 285.323 327.94 281.668 331.595 277.16 331.595L 277.16 337.595ZM 262.998 323.432C 262.998 331.254 269.339 337.595 277.16 337.595L 277.16 331.595C 272.653 331.595 268.998 327.94 268.998 323.432L 262.998 323.432ZM 274.443 323.432C 274.443 321.932 275.66 320.715 277.16 320.715L 277.16 314.715C 272.346 314.715 268.443 318.618 268.443 323.432L 274.443 323.432ZM 277.16 326.149C 275.66 326.149 274.443 324.933 274.443 323.432L 268.443 323.432C 268.443 328.247 272.346 332.149 277.16 332.149L 277.16 326.149ZM 279.877 323.432C 279.877 324.933 278.661 326.149 277.16 326.149L 277.16 332.149C 281.975 332.149 285.877 328.247 285.877 323.432L 279.877 323.432ZM 277.16 320.715C 278.661 320.715 279.877 321.932 279.877 323.432L 285.877 323.432C 285.877 318.618 281.975 314.715 277.16 314.715L 277.16 320.715Z"/>
<path id="path9_fill" d="M 9.73047 11.9399L 9.73047 25.4341L 26.3687 25.4341L 26.3687 11.9399L 32.5649 11.9399L 32.5649 44L 26.3687 44L 26.3687 30.46L 9.73047 30.46L 9.73047 44L 3.53418 44L 3.53418 11.9399L 9.73047 11.9399ZM 56.3743 11.9399L 70.534 44L 63.9934 44L 60.6658 36.1973L 46.4143 36.1973L 43.3162 44L 36.8216 44L 50.0403 11.9399L 56.3743 11.9399ZM 48.2962 31.4927L 58.6463 31.4927L 53.2303 18.8018L 48.2962 31.4927ZM 90.878 11.5269C 92.6986 11.5269 94.481 11.7334 96.2252 12.1465C 97.9693 12.5596 99.8511 13.2633 101.871 14.2578L 101.871 20.0869C 99.897 18.9548 98.0687 18.1362 96.3858 17.6313C 94.7182 17.1265 92.974 16.874 91.1534 16.874C 88.8738 16.874 86.816 17.3483 84.98 18.2969C 83.1441 19.2301 81.7136 20.5535 80.6885 22.2671C 79.6788 23.9806 79.1739 25.8854 79.1739 27.9814C 79.1739 30.1234 79.6788 32.0435 80.6885 33.7417C 81.6983 35.4399 83.1212 36.7557 84.9571 37.689C 86.793 38.6069 88.8585 39.0659 91.1534 39.0659C 92.9128 39.0659 94.5881 38.8135 96.1793 38.3086C 97.7857 37.8037 99.8052 36.8934 102.238 35.5776L 102.238 41.4067C 100.157 42.493 98.2447 43.2656 96.5005 43.7246C 94.7564 44.1836 92.7216 44.4131 90.3961 44.4131C 87.0149 44.4131 83.9932 43.7399 81.3311 42.3936C 78.669 41.0472 76.573 39.1118 75.043 36.5874C 73.5284 34.0477 72.7711 31.2708 72.7711 28.2568C 72.7711 25.0286 73.5513 22.1294 75.1119 19.5591C 76.6877 16.9888 78.845 15.0075 81.5836 13.6152C 84.3375 12.223 87.4356 11.5269 90.878 11.5269ZM 114.137 11.9399L 114.137 26.7422L 114.274 26.7422L 126.024 11.9399L 133.07 11.9399L 121.136 27.0405L 136.604 44L 128.663 44L 114.137 28.2568L 114.137 44L 107.94 44L 107.94 11.9399L 114.137 11.9399ZM 159.392 11.9399L 178.439 34.3154L 178.439 11.9399L 184.498 11.9399L 184.498 44L 179.174 44L 160.011 21.2573L 160.011 44L 153.953 44L 153.953 11.9399L 159.392 11.9399ZM 196.19 11.9399L 203.947 22.6572L 211.796 11.9399L 219.162 11.9399L 207.045 28.1191L 207.045 44L 200.849 44L 200.849 28.0732L 188.663 11.9399L 196.19 11.9399ZM 229.11 11.9399L 229.11 30.5977C 229.11 32.5101 229.393 34.0324 229.959 35.1646C 230.541 36.2967 231.482 37.23 232.782 37.9644C 234.083 38.6987 235.597 39.0659 237.326 39.0659C 239.223 39.0659 240.83 38.7217 242.145 38.0332C 243.477 37.3294 244.448 36.3809 245.06 35.1875C 245.672 33.9788 245.978 32.3112 245.978 30.1846L 245.978 11.9399L 252.174 11.9399L 252.174 30.9878C 252.174 35.3022 250.881 38.6222 248.296 40.9478C 245.71 43.258 242.054 44.4131 237.326 44.4131C 234.358 44.4131 231.78 43.8853 229.592 42.8296C 227.42 41.7739 225.76 40.2516 224.612 38.2627C 223.465 36.2585 222.891 33.91 222.891 31.2173L 222.891 11.9399L 229.11 11.9399Z"/>
</defs>
</svg>
